<?xml version="1.0" standalone="no"?>
<!DOCTYPE svg PUBLIC "-//W3C//DTD SVG 20010904//EN"
 "http://www.w3.org/TR/2001/REC-SVG-20010904/DTD/svg10.dtd">
<svg version="1.0" xmlns="http://www.w3.org/2000/svg"
 width="362.000000pt" height="390.000000pt" viewBox="0 0 362.000000 390.000000"
 preserveAspectRatio="xMidYMid meet">

<g transform="translate(0.000000,390.000000) scale(0.100000,-0.100000)"
fill="#000000" stroke="none">
<path d="M1880 3412 c0 -5 6 -9 13 -9 29 0 116 -61 183 -128 115 -115 174
-255 174 -411 l0 -81 66 -39 c36 -21 91 -62 122 -90 l57 -53 -140 -140 c-77
-78 -143 -141 -147 -141 -4 0 -28 15 -53 34 -69 53 -76 53 -147 0 -124 -92
-234 -125 -399 -121 l-105 3 -509 -501 -509 -501 14 -35 c8 -19 44 -63 80 -99
58 -57 121 -97 530 -331 256 -147 488 -274 515 -284 117 -39 283 -27 393 29
26 13 243 137 482 275 481 278 519 306 585 433 58 110 65 162 65 523 l0 319
-402 -400 c-412 -410 -446 -439 -583 -500 -177 -78 -424 -88 -607 -25 -141 48
-295 153 -360 243 l-20 29 113 114 c62 63 120 115 128 115 8 0 12 3 8 6 -3 3
2 13 10 22 15 16 20 13 67 -33 154 -151 390 -179 563 -66 27 16 274 257 551
533 l503 504 -33 64 c-64 129 -102 157 -619 452 -256 146 -486 273 -512 282
-53 18 -77 20 -77 8z"/>
<path d="M860 2981 c-170 -96 -217 -128 -276 -186 -74 -73 -123 -157 -143
-245 -6 -27 -11 -200 -11 -425 l0 -380 360 362 361 361 -30 45 c-97 143 -126
355 -70 520 11 32 19 61 17 62 -2 2 -95 -50 -208 -114z"/>
<path d="M1300 1523 l-105 -108 108 105 c99 97 112 110 104 110 -1 0 -50 -48
-107 -107z"/>
</g>
</svg>
